<svg xmlns="http://www.w3.org/2000/svg" width="30" height="27" viewBox="0 0 50 42">
  <g data-name="Layer 2">
    <path fill="#003669" d="M40.5 12h7a2.5 2.5 0 000-5h-7a2.5 2.5 0 000 5zm-25-5h-13a2.5 2.5 0 000 5h13a2.5 2.5 0 000-5zm-6 23h-7a2.5 2.5 0 000 5h7a2.5 2.5 0 000-5zm38 0h-13a2.5 2.5 0 000 5h13a2.5 2.5 0 000-5z"/>
    <path fill="#b8f1db" d="M18.5 23a9.5 9.5 0 109.5 9.5 9.5 9.5 0 00-9.5-9.5zm0 14a4.5 4.5 0 114.5-4.5 4.51 4.51 0 01-4.5 4.5zm13-37A9.5 9.5 0 1041 9.5 9.5 9.5 0 0031.5 0zm0 14A4.5 4.5 0 1136 9.5a4.51 4.51 0 01-4.5 4.5z"/>
  </g>
</svg>
