<svg xmlns="http://www.w3.org/2000/svg" xmlns:xlink="http://www.w3.org/1999/xlink" width="36" height="40"><defs><path id="a" d="M1276.982 789.75h-16.15c-.866 0-1.568-.7-1.568-1.563 0-.862.702-1.562 1.568-1.562h16.15c.867 0 1.569.7 1.569 1.562 0 .863-.702 1.563-1.569 1.563zm-6.341 3.125c.866 0 1.568.7 1.568 1.563 0 .862-.702 1.562-1.568 1.562h-9.81c-.865 0-1.567-.7-1.567-1.563 0-.862.702-1.562 1.568-1.562zm-4.557 16.563c0 .862-.702 1.562-1.567 1.562h-5.245c-3.458 0-6.272-2.804-6.272-6.25v-27.5c0-3.446 2.814-6.25 6.272-6.25h19.279c3.458 0 6.272 2.804 6.272 6.25v9.61c0 .862-.702 1.562-1.568 1.562-.866 0-1.568-.7-1.568-1.563v-9.61a3.134 3.134 0 0 0-3.136-3.124h-19.279a3.134 3.134 0 0 0-3.136 3.125v27.5a3.134 3.134 0 0 0 3.136 3.125h5.245c.865 0 1.567.7 1.567 1.563zm21.516-9.186l-8.59 8.544a1.57 1.57 0 0 1-.69.4l-6.329 1.747a1.565 1.565 0 0 1-1.54-.414c-.4-.408-.545-1-.379-1.546l1.875-6.15c.075-.246.21-.47.393-.652l8.609-8.56a4.721 4.721 0 0 1 6.651.002 4.681 4.681 0 0 1 0 6.629zm-4.74.3l-2.218-2.211-5.809 5.775-.931 3.057 3.184-.879zm2.523-4.72a1.574 1.574 0 0 0-2.218 0l-.303.302 2.218 2.21.304-.303c.61-.608.61-1.6-.001-2.208zm-6.832-13.895c0 .863-.702 1.563-1.569 1.563h-16.15c-.866 0-1.568-.7-1.568-1.563 0-.862.702-1.562 1.568-1.562h16.15c.867 0 1.569.7 1.569 1.562z"/></defs><use fill="#4780f0" xlink:href="#a" transform="translate(-1253 -771)"/></svg>