<svg xmlns="http://www.w3.org/2000/svg" width="25" height="25" viewBox="0 0 49.87 49.88">
  <g data-name="Layer 2">
    <path fill="#003669" d="M49.14 45.61L38.58 35.05a2.77 2.77 0 00-3.91 0 17.49 17.49 0 114.92-16.35 17.7 17.7 0 01-.18 8.3 2.5 2.5 0 104.84 1.29 22.54 22.54 0 10-7.72 11.82l9.07 9.06a2.5 2.5 0 003.54 0 2.5 2.5 0 000-3.56z"/>
    <path fill="#b8f1db" d="M30 30a2.46 2.46 0 00-3-.27 8.52 8.52 0 01-8.66.17 2.41 2.41 0 00-2.87.33l-.15.14a2.41 2.41 0 00.42 3.81 13.55 13.55 0 0014-.28 2.41 2.41 0 00.41-3.74z"/>
  </g>
</svg>
