<svg xmlns="http://www.w3.org/2000/svg" xmlns:xlink="http://www.w3.org/1999/xlink" width="36" height="42"><defs><path id="a" d="M820.972 809.382a4.5 4.5 0 0 1-3.468 1.618h-27.007a4.514 4.514 0 0 1-3.48-1.616 4.323 4.323 0 0 1-.92-3.689c.844-3.965 3.078-7.574 6.291-10.161a18.36 18.36 0 0 1 5.395-3.001c-2.111-1.733-3.455-4.328-3.455-7.225 0-1.712.463-3.352 1.331-4.786l-7.46-2.663a1.644 1.644 0 0 1-1.104-1.541v-.092c0-.684.434-1.296 1.09-1.537l15.27-5.61c.384-.14.807-.14 1.19.002l15.176 5.625a1.644 1.644 0 0 1 1.085 1.535v.092l-.002.062.002.048v10.343c0 .906-.753 1.641-1.682 1.641-.93 0-1.682-.735-1.682-1.641v-8.098l-5.183 1.863a9.207 9.207 0 0 1 1.314 4.757c0 2.893-1.341 5.486-3.448 7.219a18.254 18.254 0 0 1 7.59 5.086 1.614 1.614 0 0 1-.17 2.315 1.711 1.711 0 0 1-2.372-.165 14.811 14.811 0 0 0-4.398-3.382l-4.542 11.336h11.17c.452 0 .732-.255.86-.408.23-.277.32-.635.247-.982-.19-.888.395-1.757 1.305-1.941.91-.185 1.8.385 1.989 1.273a4.365 4.365 0 0 1-.932 3.723zm-22.754-31.443c1.653-.741 4.225-.866 5.801-.86 1.576.003 4.145.138 5.798.887l4.733-1.702-10.505-3.893-10.56 3.879zM804 791.464c3.479 0 6.309-2.761 6.309-6.156a6.04 6.04 0 0 0-1.833-4.337c-.324-.197-1.834-.603-4.461-.61h-.06c-2.588 0-4.082.394-4.407.588a6.037 6.037 0 0 0-1.856 4.36c0 3.394 2.83 6.155 6.308 6.155zm-2.332 16.253l-4.535-11.318c-3.876 1.978-6.81 5.579-7.742 9.963-.098.463.105.794.235.95.126.15.407.405.87.405zm2.332-3.194l3.732-9.313a15.315 15.315 0 0 0-3.732-.462c-1.28 0-2.53.162-3.729.468z"/></defs><use fill="#4780f0" xlink:href="#a" transform="translate(-786 -769)"/></svg>