<svg xmlns="http://www.w3.org/2000/svg" xmlns:xlink="http://www.w3.org/1999/xlink" width="43" height="43"><defs><path id="a" d="M1030.688 797.592a1.68 1.68 0 1 1-2.377 2.376 1.68 1.68 0 0 1 2.377-2.376zm-3.207-4.793a1.68 1.68 0 1 1-3.103 1.286 1.68 1.68 0 0 1 3.103-1.286zm-3.122-4.01a1.67 1.67 0 0 1-.962-.565 1.682 1.682 0 0 1-.386-.895l-.003-.025a1.574 1.574 0 0 1-.008-.164c0-4.845 1.887-9.4 5.313-12.827a18.021 18.021 0 0 1 12.828-5.313c4.845 0 9.4 1.887 12.827 5.313a18.021 18.021 0 0 1 5.313 12.827v4.545l3.264-3.264a1.68 1.68 0 1 1 2.375 2.376l-3.504 3.503a5.358 5.358 0 0 1-3.8 1.573 5.358 5.358 0 0 1-3.801-1.573l-3.626-3.626a1.68 1.68 0 1 1 2.375-2.375l3.358 3.358v-4.517c0-8.15-6.631-14.78-14.781-14.78s-14.782 6.63-14.782 14.78c0 .055-.002.11-.008.164 0 .009-.002.017-.003.025a1.666 1.666 0 0 1-.472.99l-.018.018c-.03.03-.062.059-.095.086l-.03.025a1.575 1.575 0 0 1-.217.148 1.665 1.665 0 0 1-.648.213l-.025.003a1.619 1.619 0 0 1-.327 0l-.025-.003a1.666 1.666 0 0 1-.132-.02zm12.03 14.206a1.679 1.679 0 1 1-3.103-1.287 1.68 1.68 0 0 1 3.103 1.287zm6.423.441a1.588 1.588 0 0 1-.024.494 1.766 1.766 0 0 1-.166.463 1.68 1.68 0 1 1-.839-2.343 1.65 1.65 0 0 1 .423.253 1.772 1.772 0 0 1 .234.234 1.675 1.675 0 0 1 .372.9zm11.598 6.884a1.68 1.68 0 0 1-1.68 1.68h-5.207a1.68 1.68 0 0 1-1.127-2.925c.01-.01 1.176-1.069 2.347-2.36 1.976-2.18 2.183-3.045 2.2-3.131a.852.852 0 0 0-.84-.822l-.03-.002-.03.002a.851.851 0 0 0-.84.84 1.68 1.68 0 1 1-3.36 0c0-2.316 1.885-4.2 4.2-4.2l.03.002.03-.002a4.204 4.204 0 0 1 4.199 4.2c0 .886-.321 2.257-2.775 5.039h1.203c.928 0 1.68.752 1.68 1.68zm11.59-9.238v9.238a1.68 1.68 0 0 1-3.36 0v-2.769a4.582 4.582 0 0 1-5.795-4.411v-2.058a1.68 1.68 0 1 1 3.36 0v2.058a1.22 1.22 0 0 0 1.218 1.218 1.22 1.22 0 0 0 1.218-1.218v-2.058a1.68 1.68 0 1 1 3.359 0zm-23.18-23.684v9.742c0 .446-.177.873-.492 1.188l-4.703 4.703a1.674 1.674 0 0 1-1.188.493 1.68 1.68 0 0 1-1.188-2.867l4.212-4.212v-9.047a1.68 1.68 0 1 1 3.36 0z"/></defs><use fill="#4780f0" xlink:href="#a" transform="translate(-1023 -769)"/></svg>